<svg xmlns="http://www.w3.org/2000/svg" width="25" height="25" viewBox="0 0 25 25">
  <g id="Icon_feather-instagram" data-name="Icon feather-instagram" transform="translate(1 1)">
    <path id="パス_39" data-name="パス 39" d="M8.75,3h11.5A5.75,5.75,0,0,1,26,8.75v11.5A5.75,5.75,0,0,1,20.25,26H8.75A5.75,5.75,0,0,1,3,20.25V8.75A5.75,5.75,0,0,1,8.75,3Z" transform="translate(-3 -3)" fill="none" stroke="#000" stroke-linecap="round" stroke-linejoin="round" stroke-width="2"/>
    <path id="パス_40" data-name="パス 40" d="M21.215,15.86a4.6,4.6,0,1,1-3.876-3.875,4.6,4.6,0,0,1,3.876,3.875Z" transform="translate(-5.115 -5.085)" fill="none" stroke="#000" stroke-linecap="round" stroke-linejoin="round" stroke-width="2"/>
    <path id="パス_41" data-name="パス 41" d="M26.25,9.75h0" transform="translate(-8.425 -4.575)" fill="none" stroke="#000" stroke-linecap="round" stroke-linejoin="round" stroke-width="2"/>
  </g>
</svg>
