<svg id="Icon_feather-search" data-name="Icon feather-search" xmlns="http://www.w3.org/2000/svg" width="23.053" height="23.053" viewBox="0 0 23.053 23.053">
  <g id="パス_4" data-name="パス 4" transform="translate(-4.5 -4.5)" fill="none" stroke-linecap="round" stroke-linejoin="round">
    <path d="M24.491,14.5a10,10,0,1,1-10-10,10,10,0,0,1,10,10Z" stroke="none"/>
    <path d="M 14.49549865722656 5.499998092651367 C 9.535358428955078 5.499998092651367 5.499998092651367 9.535358428955078 5.499998092651367 14.49549865722656 C 5.499998092651367 19.45563888549805 9.535358428955078 23.49099922180176 14.49549865722656 23.49099922180176 C 19.45562744140625 23.49099922180176 23.49098968505859 19.45563888549805 23.49098968505859 14.49549865722656 C 23.49098968505859 12.09271812438965 22.5552978515625 9.833747863769531 20.85627746582031 8.13471794128418 C 19.15724945068359 6.435699462890625 16.89827728271484 5.499998092651367 14.49549865722656 5.499998092651367 M 14.49549865722656 4.499998092651367 C 20.0158576965332 4.499998092651367 24.49099922180176 8.975137710571289 24.49098968505859 14.49549865722656 C 24.49098968505859 20.0158576965332 20.0158576965332 24.49099922180176 14.49549865722656 24.49099922180176 C 8.975137710571289 24.49099922180176 4.499998092651367 20.0158576965332 4.499998092651367 14.49549865722656 C 4.499998092651367 8.975137710571289 8.975137710571289 4.499998092651367 14.49549865722656 4.499998092651367 Z" stroke="none" fill="#000"/>
  </g>
  <path id="パス_5" data-name="パス 5" d="M30.257,30.148l-5.282-5.173" transform="translate(-7.91 -7.802)" fill="none" stroke="#000" stroke-linecap="round" stroke-linejoin="round" stroke-width="1"/>
</svg>
