<svg xmlns="http://www.w3.org/2000/svg" width="18.81" height="18" viewBox="0 0 18.81 18">
  <g id="Icon_feather-shopping-cart" data-name="Icon feather-shopping-cart" transform="translate(0.5 0.5)">
    <path id="パス_1" data-name="パス 1" d="M13.587,30.793A.793.793,0,1,1,12.793,30,.793.793,0,0,1,13.587,30.793Z" transform="translate(-6.322 -14.587)" fill="none" stroke="#000" stroke-linecap="round" stroke-linejoin="round" stroke-width="1"/>
    <path id="パス_2" data-name="パス 2" d="M30.087,30.793A.793.793,0,1,1,29.293,30,.793.793,0,0,1,30.087,30.793Z" transform="translate(-13.864 -14.587)" fill="none" stroke="#000" stroke-linecap="round" stroke-linejoin="round" stroke-width="1"/>
    <path id="パス_3" data-name="パス 3" d="M1.5,1.5H4.738l2.17,10.926A1.622,1.622,0,0,0,8.527,13.74H16.4a1.622,1.622,0,0,0,1.619-1.314l1.3-6.846H5.548" transform="translate(-1.5 -1.5)" fill="none" stroke="#000" stroke-linecap="round" stroke-linejoin="round" stroke-width="1"/>
  </g>
</svg>
