<svg id="グループ_3" data-name="グループ 3" xmlns="http://www.w3.org/2000/svg" width="150.879" height="39.129" viewBox="0 0 150.879 39.129">
  <g id="グループ_1" data-name="グループ 1">
    <path id="パス_1" data-name="パス 1" d="M247.695,395.759h5.051l4.368,7.781,4.1-7.781h5.051l-6.826,12.271v8.28h-4.914v-8.28Z" transform="translate(-247.695 -395.659)"/>
    <path id="パス_2" data-name="パス 2" d="M268.159,416.31l7.1-20.551h4.914l6.963,20.551h-4.506l-1.228-4.39h-7.372l-1.228,4.39Zm6.826-7.483h5.46l-2.73-8.579Z" transform="translate(-252.422 -395.659)"/>
    <path id="パス_3" data-name="パス 3" d="M295.653,395.759H301.8l4.641,15.064,4.506-15.064h6.279V416.31H312.99V401.644l-4.232,14.665H303.98l-4.232-14.665V416.31h-4.1Z" transform="translate(-258.772 -395.659)"/>
    <path id="パス_4" data-name="パス 4" d="M326.519,416.31l7.1-20.551h4.915l6.962,20.551h-4.5l-1.229-4.39H332.39l-1.229,4.39Zm6.826-7.483h5.46l-2.73-8.579Z" transform="translate(-265.901 -395.659)"/>
    <path id="パス_5" data-name="パス 5" d="M354.013,395.629h6.962a11.5,11.5,0,0,1,6.962,2.195q3.277,2.395,3.276,8.18t-3.276,8.181a11.712,11.712,0,0,1-7.1,2.194h-6.825Zm4.1,17.458h2.73a6.814,6.814,0,0,0,4.1-1.4q1.91-1.4,1.911-5.687t-1.911-5.686a6.825,6.825,0,0,0-4.1-1.4h-2.73Z" transform="translate(-272.252 -395.629)"/>
    <path id="パス_6" data-name="パス 6" d="M376.847,416.31l7.1-20.551h4.915l6.961,20.551h-4.5l-1.228-4.39h-7.372l-1.229,4.39Zm6.826-7.483h5.461l-2.731-8.579Z" transform="translate(-277.526 -395.659)"/>
    <path id="パス_7" data-name="パス 7" d="M398.754,395.759H403.8l4.367,7.781,4.1-7.781h5.051l-6.826,12.271v8.28H405.58v-8.28Z" transform="translate(-282.586 -395.659)"/>
    <path id="パス_8" data-name="パス 8" d="M419.217,416.31l7.1-20.551h4.915l6.961,20.551h-4.5l-1.228-4.39h-7.372l-1.228,4.39Zm6.826-7.483H431.5l-2.731-8.579Z" transform="translate(-287.312 -395.659)"/>
  </g>
  <g id="グループ_2" data-name="グループ 2" transform="translate(17.816 28.507)">
    <path id="パス_9" data-name="パス 9" d="M271.14,439.958a3.455,3.455,0,0,1,2.016-2.06,4.318,4.318,0,0,1,1.607-.285,4.373,4.373,0,0,1,1.615.285,3.5,3.5,0,0,1,1.234.8,3.543,3.543,0,0,1,.789,1.257,4.636,4.636,0,0,1,.278,1.644,4.574,4.574,0,0,1-.278,1.636,3.551,3.551,0,0,1-.789,1.249,3.435,3.435,0,0,1-1.234.8,4.485,4.485,0,0,1-1.615.277,4.428,4.428,0,0,1-1.607-.277,3.455,3.455,0,0,1-1.227-.8,3.542,3.542,0,0,1-.789-1.249,4.577,4.577,0,0,1-.278-1.636A4.639,4.639,0,0,1,271.14,439.958Zm1.885,2.528a2.372,2.372,0,0,0,.3.774,1.593,1.593,0,0,0,.563.548,1.712,1.712,0,0,0,.877.205,1.751,1.751,0,0,0,.884-.205,1.571,1.571,0,0,0,.571-.548,2.372,2.372,0,0,0,.3-.774,4.426,4.426,0,0,0,.088-.884,4.528,4.528,0,0,0-.088-.891,2.282,2.282,0,0,0-.3-.774,1.653,1.653,0,0,0-.571-.548,1.7,1.7,0,0,0-.884-.212,1.6,1.6,0,0,0-1.44.76,2.283,2.283,0,0,0-.3.774,4.532,4.532,0,0,0-.088.891A4.43,4.43,0,0,0,273.024,442.486Z" transform="translate(-270.862 -434.94)"/>
    <path id="パス_10" data-name="パス 10" d="M288.547,437.818v1.052h.044a2.384,2.384,0,0,1,1.023-.957,2.954,2.954,0,0,1,1.286-.3,3.526,3.526,0,0,1,1.366.227,2.028,2.028,0,0,1,.84.628,2.423,2.423,0,0,1,.431.979,6.072,6.072,0,0,1,.125,1.278v4.646h-2.075v-4.267a2.65,2.65,0,0,0-.292-1.395,1.131,1.131,0,0,0-1.037-.461,1.439,1.439,0,0,0-1.227.5,2.8,2.8,0,0,0-.38,1.66v3.959h-2.075v-7.554Z" transform="translate(-274.491 -434.94)"/>
    <path id="パス_11" data-name="パス 11" d="M303.793,434.137v10.432h-2.075V434.137Z" transform="translate(-277.989 -434.137)"/>
    <path id="パス_12" data-name="パス 12" d="M310.42,435.846v-1.709h2.074v1.709Zm2.074,1.169v7.554H310.42v-7.554Z" transform="translate(-279.999 -434.137)"/>
    <path id="パス_13" data-name="パス 13" d="M321.018,437.818v1.052h.045a2.384,2.384,0,0,1,1.023-.957,2.954,2.954,0,0,1,1.286-.3,3.529,3.529,0,0,1,1.366.227,2.034,2.034,0,0,1,.841.628,2.446,2.446,0,0,1,.431.979,6.121,6.121,0,0,1,.124,1.278v4.646h-2.076v-4.267a2.651,2.651,0,0,0-.292-1.395,1.131,1.131,0,0,0-1.037-.461,1.441,1.441,0,0,0-1.228.5,2.81,2.81,0,0,0-.379,1.66v3.959h-2.075v-7.554Z" transform="translate(-281.991 -434.94)"/>
    <path id="パス_14" data-name="パス 14" d="M336.223,443.561a2.126,2.126,0,0,0,2.426.138,1.3,1.3,0,0,0,.555-.665h1.827a3.464,3.464,0,0,1-1.344,1.943,3.954,3.954,0,0,1-2.192.584,4.318,4.318,0,0,1-1.607-.285,3.341,3.341,0,0,1-1.213-.811,3.671,3.671,0,0,1-.767-1.256,4.607,4.607,0,0,1-.27-1.607,4.421,4.421,0,0,1,.278-1.579,3.645,3.645,0,0,1,2.009-2.1,3.9,3.9,0,0,1,1.571-.308,3.581,3.581,0,0,1,1.68.373,3.35,3.35,0,0,1,1.177,1,4.1,4.1,0,0,1,.664,1.433,5.328,5.328,0,0,1,.146,1.68h-5.45A2.1,2.1,0,0,0,336.223,443.561Zm2.346-3.974a1.458,1.458,0,0,0-1.133-.41,1.809,1.809,0,0,0-.825.168,1.58,1.58,0,0,0-.527.416,1.52,1.52,0,0,0-.277.527,2.388,2.388,0,0,0-.1.5h3.376A2.4,2.4,0,0,0,338.569,439.586Z" transform="translate(-285.361 -434.94)"/>
    <path id="パス_15" data-name="パス 15" d="M359.537,443.494a1.191,1.191,0,0,0,.358.394,1.5,1.5,0,0,0,.5.227,2.349,2.349,0,0,0,.592.073,2.193,2.193,0,0,0,.46-.051,1.571,1.571,0,0,0,.438-.161,1,1,0,0,0,.329-.292.769.769,0,0,0,.131-.461q0-.467-.621-.7a12.489,12.489,0,0,0-1.731-.467q-.453-.1-.884-.241a2.982,2.982,0,0,1-.767-.365,1.792,1.792,0,0,1-.541-.57,1.616,1.616,0,0,1-.2-.84,2.276,2.276,0,0,1,.284-1.2,2.109,2.109,0,0,1,.753-.738,3.3,3.3,0,0,1,1.052-.38,6.49,6.49,0,0,1,1.2-.11,5.952,5.952,0,0,1,1.19.118,3.149,3.149,0,0,1,1.03.394,2.378,2.378,0,0,1,.753.738,2.48,2.48,0,0,1,.358,1.161h-1.973a.907.907,0,0,0-.453-.811,2.073,2.073,0,0,0-.964-.212,3.575,3.575,0,0,0-.381.022,1.281,1.281,0,0,0-.372.095.773.773,0,0,0-.285.212.557.557,0,0,0-.116.372.565.565,0,0,0,.2.453,1.577,1.577,0,0,0,.534.285,6.68,6.68,0,0,0,.752.2c.282.058.57.122.862.189a8.956,8.956,0,0,1,.884.248,2.924,2.924,0,0,1,.767.387,1.891,1.891,0,0,1,.541.6,1.774,1.774,0,0,1,.2.885,2.294,2.294,0,0,1-1.081,2.06,3.209,3.209,0,0,1-1.1.431,6.416,6.416,0,0,1-1.264.124,6.213,6.213,0,0,1-1.286-.131,3.371,3.371,0,0,1-1.117-.438,2.5,2.5,0,0,1-.8-.81,2.542,2.542,0,0,1-.344-1.264H359.4A1.131,1.131,0,0,0,359.537,443.494Z" transform="translate(-290.856 -434.94)"/>
    <path id="パス_16" data-name="パス 16" d="M375.842,437.2v1.389h-1.52v3.74a.7.7,0,0,0,.877.876c.116,0,.228,0,.335-.015a2.657,2.657,0,0,0,.308-.044v1.607a4.88,4.88,0,0,1-.584.058c-.215.01-.424.015-.628.015a6.052,6.052,0,0,1-.914-.066,2.147,2.147,0,0,1-.76-.256,1.349,1.349,0,0,1-.518-.54,1.931,1.931,0,0,1-.19-.921v-4.456H370.99V437.2h1.257v-2.264h2.074V437.2Z" transform="translate(-293.989 -434.321)"/>
    <path id="パス_17" data-name="パス 17" d="M382.365,439.958a3.455,3.455,0,0,1,2.016-2.06,4.315,4.315,0,0,1,1.607-.285,4.374,4.374,0,0,1,1.615.285,3.441,3.441,0,0,1,2.023,2.06,4.635,4.635,0,0,1,.278,1.644,4.573,4.573,0,0,1-.278,1.636,3.54,3.54,0,0,1-.789,1.249,3.435,3.435,0,0,1-1.234.8,4.486,4.486,0,0,1-1.615.277,4.425,4.425,0,0,1-1.607-.277,3.446,3.446,0,0,1-1.227-.8,3.53,3.53,0,0,1-.789-1.249,4.576,4.576,0,0,1-.278-1.636A4.638,4.638,0,0,1,382.365,439.958Zm1.885,2.528a2.357,2.357,0,0,0,.3.774,1.593,1.593,0,0,0,.563.548,1.713,1.713,0,0,0,.877.205,1.756,1.756,0,0,0,.884-.205,1.575,1.575,0,0,0,.57-.548,2.37,2.37,0,0,0,.3-.774,4.426,4.426,0,0,0,.088-.884,4.528,4.528,0,0,0-.088-.891,2.281,2.281,0,0,0-.3-.774,1.658,1.658,0,0,0-.57-.548,1.71,1.71,0,0,0-.884-.212,1.6,1.6,0,0,0-1.44.76,2.269,2.269,0,0,0-.3.774,4.535,4.535,0,0,0-.088.891A4.432,4.432,0,0,0,384.249,442.486Z" transform="translate(-296.552 -434.94)"/>
    <path id="パス_18" data-name="パス 18" d="M399.772,437.818v1.4h.029a2.553,2.553,0,0,1,.4-.651,2.623,2.623,0,0,1,.569-.511,2.788,2.788,0,0,1,.688-.328,2.453,2.453,0,0,1,.758-.118,1.655,1.655,0,0,1,.454.073v1.929c-.1-.02-.215-.037-.35-.052s-.269-.022-.4-.022a2.219,2.219,0,0,0-.964.19,1.683,1.683,0,0,0-.636.519,2.069,2.069,0,0,0-.343.767,4.164,4.164,0,0,0-.1.95v3.4H397.8v-7.554Z" transform="translate(-300.182 -434.94)"/>
    <path id="パス_19" data-name="パス 19" d="M411.1,443.561a2.126,2.126,0,0,0,2.425.138,1.3,1.3,0,0,0,.555-.665h1.826a3.464,3.464,0,0,1-1.344,1.943,3.956,3.956,0,0,1-2.192.584,4.319,4.319,0,0,1-1.608-.285,3.339,3.339,0,0,1-1.212-.811,3.662,3.662,0,0,1-.767-1.256,4.607,4.607,0,0,1-.27-1.607,4.406,4.406,0,0,1,.278-1.579,3.646,3.646,0,0,1,2.009-2.1,3.9,3.9,0,0,1,1.571-.308,3.583,3.583,0,0,1,1.68.373,3.346,3.346,0,0,1,1.176,1,4.093,4.093,0,0,1,.665,1.433,5.329,5.329,0,0,1,.146,1.68h-5.45A2.1,2.1,0,0,0,411.1,443.561Zm2.346-3.974a1.459,1.459,0,0,0-1.133-.41,1.807,1.807,0,0,0-.825.168,1.582,1.582,0,0,0-.527.416,1.536,1.536,0,0,0-.278.527,2.422,2.422,0,0,0-.095.5h3.375A2.4,2.4,0,0,0,413.448,439.586Z" transform="translate(-302.657 -434.94)"/>
  </g>
</svg>
