<svg xmlns="http://www.w3.org/2000/svg" width="92.543" height="24" viewBox="0 0 92.543 24">
  <g id="グループ_3" data-name="グループ 3" transform="translate(-193.996 -388.915)">
    <g id="グループ_1" data-name="グループ 1" transform="translate(193.996 388.915)">
      <path id="パス_1" data-name="パス 1" d="M247.695,395.759h3.1l2.679,4.773,2.512-4.773h3.1l-4.187,7.526v5.079h-3.014v-5.079Z" transform="translate(-247.695 -395.698)" fill="#fff"/>
      <path id="パス_2" data-name="パス 2" d="M268.159,408.364l4.354-12.6h3.014l4.271,12.6h-2.764l-.753-2.692h-4.522l-.753,2.692Zm4.187-4.59h3.349l-1.674-5.262Z" transform="translate(-258.506 -395.698)" fill="#fff"/>
      <path id="パス_3" data-name="パス 3" d="M295.653,395.759h3.768L302.267,405l2.764-9.239h3.851v12.6h-2.6v-9l-2.6,9H300.76l-2.6-9v9h-2.512Z" transform="translate(-273.032 -395.698)" fill="#fff"/>
      <path id="パス_4" data-name="パス 4" d="M326.519,408.364l4.354-12.6h3.015l4.27,12.6h-2.763l-.754-2.692H330.12l-.754,2.692Zm4.187-4.59h3.349l-1.674-5.262Z" transform="translate(-289.339 -395.698)" fill="#fff"/>
      <path id="パス_5" data-name="パス 5" d="M354.013,395.629h4.27a7.052,7.052,0,0,1,4.27,1.346q2.01,1.469,2.009,5.017t-2.009,5.018a7.184,7.184,0,0,1-4.354,1.346h-4.186Zm2.512,10.708H358.2a4.18,4.18,0,0,0,2.512-.856q1.172-.857,1.172-3.488t-1.172-3.488a4.186,4.186,0,0,0-2.512-.857h-1.674Z" transform="translate(-303.864 -395.629)" fill="#fff"/>
      <path id="パス_6" data-name="パス 6" d="M376.847,408.364l4.355-12.6h3.014l4.27,12.6h-2.763l-.753-2.692h-4.522l-.754,2.692Zm4.187-4.59h3.349l-1.675-5.262Z" transform="translate(-315.928 -395.698)" fill="#fff"/>
      <path id="パス_7" data-name="パス 7" d="M398.754,395.759h3.1l2.679,4.773,2.512-4.773h3.1l-4.187,7.526v5.079h-3.014v-5.079Z" transform="translate(-327.501 -395.698)" fill="#fff"/>
      <path id="パス_8" data-name="パス 8" d="M419.217,408.364l4.354-12.6h3.015l4.27,12.6h-2.763l-.753-2.692h-4.522l-.753,2.692Zm4.187-4.59h3.349l-1.675-5.262Z" transform="translate(-338.312 -395.698)" fill="#fff"/>
    </g>
    <g id="グループ_2" data-name="グループ 2" transform="translate(204.923 406.4)">
      <path id="パス_9" data-name="パス 9" d="M271.032,439.052a2.119,2.119,0,0,1,1.237-1.264,2.648,2.648,0,0,1,.986-.175,2.682,2.682,0,0,1,.991.175,2.149,2.149,0,0,1,.757.493,2.174,2.174,0,0,1,.484.771,2.844,2.844,0,0,1,.17,1.009,2.806,2.806,0,0,1-.17,1,2.179,2.179,0,0,1-.484.766,2.107,2.107,0,0,1-.757.489,2.752,2.752,0,0,1-.991.17,2.717,2.717,0,0,1-.986-.17,2.119,2.119,0,0,1-.753-.489,2.173,2.173,0,0,1-.484-.766,2.807,2.807,0,0,1-.17-1A2.845,2.845,0,0,1,271.032,439.052Zm1.156,1.55a1.455,1.455,0,0,0,.184.475.977.977,0,0,0,.345.336,1.05,1.05,0,0,0,.538.126,1.074,1.074,0,0,0,.542-.126.964.964,0,0,0,.35-.336,1.454,1.454,0,0,0,.184-.475,2.713,2.713,0,0,0,.054-.542,2.776,2.776,0,0,0-.054-.547,1.4,1.4,0,0,0-.184-.475,1.014,1.014,0,0,0-.35-.336,1.046,1.046,0,0,0-.542-.13.98.98,0,0,0-.883.466,1.4,1.4,0,0,0-.184.475,2.778,2.778,0,0,0-.054.547A2.716,2.716,0,0,0,272.188,440.6Z" transform="translate(-270.862 -435.973)" fill="#fff"/>
      <path id="パス_10" data-name="パス 10" d="M287.785,437.738v.645h.027a1.463,1.463,0,0,1,.627-.587,1.812,1.812,0,0,1,.789-.184,2.163,2.163,0,0,1,.838.139,1.244,1.244,0,0,1,.516.385,1.487,1.487,0,0,1,.264.6,3.724,3.724,0,0,1,.076.784v2.85h-1.273v-2.617a1.625,1.625,0,0,0-.179-.856.694.694,0,0,0-.636-.283.882.882,0,0,0-.753.309,1.72,1.72,0,0,0-.233,1.018v2.428h-1.273v-4.633Z" transform="translate(-279.163 -435.973)" fill="#fff"/>
      <path id="パス_11" data-name="パス 11" d="M302.991,434.137v6.4h-1.273v-6.4Z" transform="translate(-287.164 -434.137)" fill="#fff"/>
      <path id="パス_12" data-name="パス 12" d="M310.42,435.185v-1.048h1.272v1.048Zm1.272.717v4.633H310.42V435.9Z" transform="translate(-291.761 -434.137)" fill="#fff"/>
      <path id="パス_13" data-name="パス 13" d="M320.255,437.738v.645h.027a1.462,1.462,0,0,1,.627-.587,1.811,1.811,0,0,1,.789-.184,2.164,2.164,0,0,1,.838.139,1.248,1.248,0,0,1,.516.385,1.5,1.5,0,0,1,.265.6,3.756,3.756,0,0,1,.076.784v2.85H322.12v-2.617a1.626,1.626,0,0,0-.179-.856.694.694,0,0,0-.636-.283.884.884,0,0,0-.753.309,1.724,1.724,0,0,0-.233,1.018v2.428h-1.273v-4.633Z" transform="translate(-296.318 -435.973)" fill="#fff"/>
      <path id="パス_14" data-name="パス 14" d="M335.223,441.261a1.3,1.3,0,0,0,1.488.085.8.8,0,0,0,.341-.408h1.12a2.125,2.125,0,0,1-.825,1.192,2.425,2.425,0,0,1-1.344.358,2.648,2.648,0,0,1-.986-.174,2.05,2.05,0,0,1-.744-.5,2.252,2.252,0,0,1-.471-.77,2.826,2.826,0,0,1-.166-.986,2.712,2.712,0,0,1,.17-.968,2.236,2.236,0,0,1,1.232-1.29,2.392,2.392,0,0,1,.964-.189,2.2,2.2,0,0,1,1.031.229,2.055,2.055,0,0,1,.722.614,2.517,2.517,0,0,1,.408.879,3.268,3.268,0,0,1,.09,1.03H334.91A1.289,1.289,0,0,0,335.223,441.261Zm1.439-2.438a.894.894,0,0,0-.695-.251,1.11,1.11,0,0,0-.506.1.97.97,0,0,0-.323.255.933.933,0,0,0-.17.323,1.463,1.463,0,0,0-.059.3h2.071A1.471,1.471,0,0,0,336.662,438.823Z" transform="translate(-304.027 -435.973)" fill="#fff"/>
      <path id="パス_15" data-name="パス 15" d="M358.72,441.22a.731.731,0,0,0,.22.242.923.923,0,0,0,.309.139,1.442,1.442,0,0,0,.363.045,1.341,1.341,0,0,0,.282-.031.962.962,0,0,0,.268-.1.615.615,0,0,0,.2-.179.471.471,0,0,0,.081-.283q0-.287-.381-.43a7.659,7.659,0,0,0-1.062-.286q-.278-.063-.542-.148a1.832,1.832,0,0,1-.471-.224,1.1,1.1,0,0,1-.332-.35.991.991,0,0,1-.125-.515,1.4,1.4,0,0,1,.174-.735,1.293,1.293,0,0,1,.462-.452,2.025,2.025,0,0,1,.645-.233,3.982,3.982,0,0,1,.735-.067,3.649,3.649,0,0,1,.73.072,1.932,1.932,0,0,1,.632.242,1.459,1.459,0,0,1,.462.453,1.522,1.522,0,0,1,.22.712h-1.21a.556.556,0,0,0-.278-.5,1.271,1.271,0,0,0-.591-.13,2.2,2.2,0,0,0-.233.014.785.785,0,0,0-.228.058.475.475,0,0,0-.175.13.342.342,0,0,0-.071.228.347.347,0,0,0,.125.278.967.967,0,0,0,.327.175,4.086,4.086,0,0,0,.461.121c.173.035.35.075.529.116a5.5,5.5,0,0,1,.542.152,1.794,1.794,0,0,1,.471.238,1.159,1.159,0,0,1,.332.367,1.088,1.088,0,0,1,.125.543,1.407,1.407,0,0,1-.663,1.264,1.967,1.967,0,0,1-.676.264,3.934,3.934,0,0,1-.775.076,3.812,3.812,0,0,1-.789-.081,2.068,2.068,0,0,1-.685-.269,1.532,1.532,0,0,1-.493-.5,1.559,1.559,0,0,1-.211-.775h1.21A.694.694,0,0,0,358.72,441.22Z" transform="translate(-316.594 -435.973)" fill="#fff"/>
      <path id="パス_16" data-name="パス 16" d="M373.966,436.324v.852h-.933v2.294a.431.431,0,0,0,.538.537c.071,0,.14,0,.206-.009a1.625,1.625,0,0,0,.189-.027v.986a2.986,2.986,0,0,1-.358.036c-.132.006-.26.009-.385.009a3.71,3.71,0,0,1-.56-.041,1.317,1.317,0,0,1-.466-.157.827.827,0,0,1-.318-.331,1.184,1.184,0,0,1-.117-.565v-2.733h-.771v-.852h.771v-1.389h1.272v1.389Z" transform="translate(-323.761 -434.559)" fill="#fff"/>
      <path id="パス_17" data-name="パス 17" d="M382.257,439.052a2.119,2.119,0,0,1,1.237-1.264,2.646,2.646,0,0,1,.986-.175,2.682,2.682,0,0,1,.991.175,2.11,2.11,0,0,1,1.241,1.264,2.843,2.843,0,0,1,.17,1.009,2.805,2.805,0,0,1-.17,1,2.172,2.172,0,0,1-.484.766,2.107,2.107,0,0,1-.757.489,2.752,2.752,0,0,1-.991.17,2.715,2.715,0,0,1-.986-.17,2.114,2.114,0,0,1-.753-.489,2.166,2.166,0,0,1-.484-.766,2.807,2.807,0,0,1-.17-1A2.845,2.845,0,0,1,382.257,439.052Zm1.156,1.55a1.446,1.446,0,0,0,.184.475.977.977,0,0,0,.345.336,1.05,1.05,0,0,0,.538.126,1.077,1.077,0,0,0,.542-.126.967.967,0,0,0,.35-.336,1.455,1.455,0,0,0,.183-.475,2.713,2.713,0,0,0,.054-.542,2.776,2.776,0,0,0-.054-.547,1.4,1.4,0,0,0-.183-.475,1.017,1.017,0,0,0-.35-.336,1.049,1.049,0,0,0-.542-.13.98.98,0,0,0-.883.466,1.392,1.392,0,0,0-.184.475,2.78,2.78,0,0,0-.054.547A2.718,2.718,0,0,0,383.413,440.6Z" transform="translate(-329.623 -435.973)" fill="#fff"/>
      <path id="パス_18" data-name="パス 18" d="M399.009,437.738v.86h.018a1.567,1.567,0,0,1,.242-.4,1.609,1.609,0,0,1,.349-.313,1.709,1.709,0,0,1,.422-.2,1.5,1.5,0,0,1,.465-.072,1.016,1.016,0,0,1,.278.045v1.183c-.06-.012-.132-.023-.215-.032s-.165-.013-.242-.013a1.361,1.361,0,0,0-.592.117,1.031,1.031,0,0,0-.39.318,1.269,1.269,0,0,0-.21.47,2.552,2.552,0,0,0-.063.583v2.088H397.8v-4.633Z" transform="translate(-337.925 -435.973)" fill="#fff"/>
      <path id="パス_19" data-name="パス 19" d="M410.1,441.261a1.3,1.3,0,0,0,1.488.085.8.8,0,0,0,.341-.408h1.12a2.124,2.124,0,0,1-.824,1.192,2.426,2.426,0,0,1-1.344.358,2.65,2.65,0,0,1-.986-.174,2.049,2.049,0,0,1-.743-.5,2.246,2.246,0,0,1-.471-.77,2.826,2.826,0,0,1-.166-.986,2.7,2.7,0,0,1,.17-.968,2.236,2.236,0,0,1,1.232-1.29,2.393,2.393,0,0,1,.964-.189,2.2,2.2,0,0,1,1.031.229,2.053,2.053,0,0,1,.721.614,2.511,2.511,0,0,1,.408.879,3.268,3.268,0,0,1,.09,1.03h-3.343A1.289,1.289,0,0,0,410.1,441.261Zm1.439-2.438a.9.9,0,0,0-.695-.251,1.109,1.109,0,0,0-.506.1.97.97,0,0,0-.323.255.942.942,0,0,0-.17.323,1.489,1.489,0,0,0-.058.3h2.07A1.471,1.471,0,0,0,411.541,438.823Z" transform="translate(-343.586 -435.973)" fill="#fff"/>
    </g>
  </g>
</svg>
